<?xml version="1.0" encoding="UTF-8"?>
<svg id="Layer_1" data-name="Layer 1" xmlns="http://www.w3.org/2000/svg" viewBox="0 0 1080 1080">
  <defs>
    <style>
      .cls-1 {
        fill: #050303;
      }
    </style>
  </defs>
  <path class="cls-1" d="M417.49,737.11c-24.48-16.8-45.7-38.03-62.5-62.5-14.51-21.15-41.68-29.49-65.38-19.67l-100.99,41.83c-4.1,1.7-5.96,6.46-4.12,10.5,40.36,88.56,111.77,159.97,200.32,200.33,4.04,1.84,8.8-.02,10.5-4.12l41.83-101c9.82-23.7,1.48-50.86-19.67-65.37Z"/>
  <path class="cls-1" d="M285.03,644.5c23.5-9.73,37.23-34.6,32.42-59.58-2.7-14.01-4.16-28.45-4.26-43.2-.58-82.71,40.86-155.76,104.25-199.09,21.21-14.5,29.59-41.7,19.76-65.43l-41.66-100.57c-1.7-4.1-6.47-5.96-10.51-4.11-139.66,63.89-236.98,205.19-236.71,368.16.08,49.64,9.13,97.17,25.59,141.08,1.56,4.15,6.24,6.19,10.33,4.49l100.79-41.75Z"/>
  <path class="cls-1" d="M931.2,400.54c-57.07-155.07-206.57-265.46-381.71-264.34-48.84.31-95.65,9.38-138.96,25.69-4.14,1.56-6.18,6.24-4.48,10.32l41.83,100.98c9.76,23.57,34.77,36.71,59.84,31.99,14.39-2.71,29.23-4.13,44.41-4.13,81.55,0,153.55,40.85,196.67,103.21,2.93,4.24,7.73,6.79,12.88,6.79l162.17-.02c5.43,0,9.23-5.4,7.36-10.5Z"/>
  <path class="cls-1" d="M909.17,703.63h-176.33c-4.15.01-8.13,1.66-11.05,4.61-43.68,44.05-104.4,71.18-171.45,70.69-14.73-.11-29.16-1.57-43.16-4.26-24.98-4.81-49.85,8.92-59.59,32.42l-41.74,100.78c-1.7,4.09.35,8.77,4.49,10.33,44.11,16.55,91.89,25.61,141.78,25.61,160.4,0,298.96-93.52,364.12-229.01,2.49-5.17-1.33-11.16-7.07-11.16Z"/>
</svg>