<?xml version="1.0" encoding="UTF-8"?>
<svg id="Layer_1" data-name="Layer 1" xmlns="http://www.w3.org/2000/svg" viewBox="0 0 911.96 806.21">
  <defs>
    <style>
      .cls-1 {
        fill: #050303;
      }
    </style>
  </defs>
  <path class="cls-1" d="M833.61,603.91h-148.5c-3.5,0-6.8,1.4-9.3,3.9-36.8,37.1-87.9,59.9-144.4,59.5-12.2,0-24.2-1.3-35.8-3.5-21.3-4.1-42.6,7.6-50.9,27.7l-35,84.4c-1.4,3.4.3,7.4,3.8,8.7,37.2,13.9,77.4,21.6,119.4,21.6,135.1,0,251.8-78.8,306.7-192.9,2.1-4.4-1.1-9.4-6-9.4h0Z"/>
  <path class="cls-1" d="M419.11,631.81c-20.5-14.1-38.2-31.9-52.3-52.5-12.2-17.9-35.4-24.6-55.4-16.3l-84.6,35.1c-3.5,1.4-5,5.4-3.5,8.8,8.7,19.1,19.1,37.2,31,54.2,18.3,26.1,15.2,61.7-7.4,84.2l-14.2,14.2h0l-7.2,7.2c-6.4,6.4-13,12.5-20.7,17.3-4.1,2.6-4.7,8.4-1,11.7,3.4,3,8.7,2.1,11.2-1.6,4.6-6.9,9.9-13.2,15.7-19.1l8.7-8.7h0l14.2-14.2c22.6-22.6,58.1-25.7,84.2-7.4,17,11.9,35,22.3,54.1,30.9,3.4,1.5,7.4,0,8.8-3.5l35-84.6c8.4-20.2,1.2-43.4-16.8-55.8l.2.1Z"/>
  <path class="cls-1" d="M435.91,244.41l-34.9-84.3c-1.4-3.5-5.4-5-8.8-3.5-100.1,45.8-174.3,138.7-194.1,250-5.6,31.6-32.8,54.8-64.9,54.8H35.81c-9,0-18.1-.4-26.8-2.4-4.8-1.1-9.3,2.7-9,7.7.3,4.5,4.6,7.6,9,6.7,8.1-1.6,16.4-2.4,24.6-2.4h99.4c31.9,0,59.4,22.8,64.9,54.2,3.6,20.8,9.2,41,16.4,60.4,1.3,3.5,5.3,5.2,8.7,3.8l84.4-35c20.1-8.3,31.7-29.5,27.7-50.9-2.2-11.6-3.4-23.6-3.5-35.9-.5-69.5,34.2-130.9,87.4-167.4,18.1-12.4,25.2-35.6,16.8-55.8h.1Z"/>
  <path class="cls-1" d="M909.91,89.21c-3.3-3.3-8.7-2.8-11.3,1.1-3.8,5.6-7.7,11.2-12.6,16l-12,12h0l-61.8,61.8c-22.6,22.6-58.1,25.7-84.3,7.4-39.7-27.9-85.7-47.5-135.4-56.3-31.6-5.6-54.8-32.8-54.8-64.9v-20.4h0v-10.1c0-9,.4-18.1,2.4-26.8,1.1-4.8-2.7-9.3-7.7-9-4.5.3-7.6,4.6-6.7,9,1.6,8.1,2.4,16.4,2.4,24.6v12.3h0v20.2c0,31.9-22.7,59.5-54.2,65-20.8,3.7-41,9.2-60.4,16.5-3.5,1.3-5.2,5.3-3.8,8.7l34.9,84.2c8.3,20,29.4,31.8,50.8,27.8,12.1-2.3,24.6-3.5,37.4-3.5,68.7,0,129.3,34.4,165.6,86.9,2.5,3.6,6.5,5.7,10.8,5.7h136.6c4.6,0,7.8-4.6,6.2-8.9-10.2-27.8-24-53.9-40.7-77.7-18.3-26-14.9-61.5,7.6-84l61.8-61.8h0l12-12c4.8-4.8,10.4-8.7,16-12.6,3.8-2.6,4.4-8,1.1-11.3l.1.1Z"/>
</svg>