<?xml version="1.0" encoding="UTF-8"?>
<svg id="Layer_1" data-name="Layer 1" xmlns="http://www.w3.org/2000/svg" viewBox="0 0 1080 1080">
  <defs>
    <style>
      .cls-1 {
        fill: #040404;
      }
    </style>
  </defs>
  <path class="cls-1" d="M666.36,443.58c-3.3-3.24-8.66-2.73-11.25,1.15-3.8,5.6-7.7,11.2-12.6,16l-73.8,73.8c-21.34,21.34-54.19,25.28-79.84,10.25-6.76,3.12-11.48,9.75-14.27,17.75-8.41,24.14-3.52,53.14,19.5,67.37,13.91,8.6,30.93,9.42,46.82,8.24,10.56-.78,21.45-2.5,31.79-5.72-1.61-2.42-3.23-4.82-4.9-7.19-18.3-26-14.9-61.5,7.6-84l61.8-61.8,12-12c4.8-4.8,10.4-8.7,16-12.6,3.78-2.59,4.39-7.94,1.15-11.25Z"/>
</svg>