<?xml version="1.0" encoding="UTF-8"?>
<svg id="Layer_1" data-name="Layer 1" xmlns="http://www.w3.org/2000/svg" viewBox="0 0 1080 1080">
  <defs>
    <style>
      .cls-1 {
        fill: #040404;
      }
    </style>
  </defs>
  <path class="cls-1" d="M619.46,609.32c7.28-2.28,14.14-5.63,20.12-10.53,17.31-14.17,23.71-38.96,18.54-60.31-2.46-10.16-7.54-19.68-15.61-26.48-6.85-5.77-15.19-8.6-23.86-9.36-8.36,27.53-33.63,46.98-63.02,46.98h-97.4c-9,0-18.1-.4-26.8-2.4-4.8-1.1-9.3,2.7-9,7.7.3,4.5,4.6,7.6,9,6.7,8.1-1.6,16.4-2.4,24.6-2.4h99.4c30.49,0,56.94,20.83,64.03,50.09Z"/>
</svg>