<?xml version="1.0" encoding="UTF-8"?>
<svg id="Layer_1" data-name="Layer 1" xmlns="http://www.w3.org/2000/svg" viewBox="0 0 1080 1080">
  <defs>
    <style>
      .cls-1 {
        fill: #040404;
      }
    </style>
  </defs>
  <path class="cls-1" d="M532.78,515.83c0,28.59-18.24,53.72-44.71,62.58,1.56,5.52,3.18,11.03,5.06,16.45,3.87,11.12,9.34,22.84,19.68,29.32,12.06,7.56,28.55,7.37,41.8,3.39,22.33-6.71,33.68-26.45,37.31-47.8-28.88-7.53-49.54-33.45-49.54-63.74v-30.5c0-9,.4-18.1,2.4-26.8,1.1-4.8-2.7-9.3-7.7-9-4.5.3-7.6,4.6-6.7,9,1.6,8.1,2.4,16.4,2.4,24.6v32.5Z"/>
</svg>