<?xml version="1.0" encoding="UTF-8"?>
<svg id="Layer_1" data-name="Layer 1" xmlns="http://www.w3.org/2000/svg" viewBox="0 0 1080 1080">
  <defs>
    <style>
      .cls-1 {
        fill: #040404;
      }
    </style>
  </defs>
  <path class="cls-1" d="M262.72,688.3c-.13-1.49-.26-2.99-.39-4.48-1.62-19.72-3.13-39.45-4.43-59.2-2.25-34.35-3.82-68.75-4.24-103.18-.3,1.55-.59,3.1-.86,4.66-6.26,36.14,2.58,25.25-.2,118.6-.38,12.86,4.5,28.28,10.11,43.6Z"/>
  <path class="cls-1" d="M262.34,683.82c-1.62-19.72-3.13-39.45-4.43-59.2-2.25-34.35-3.82-68.74-4.24-103.15-.3,1.54-.59,3.09-.86,4.64-5.6,31.6-32.8,54.8-64.9,54.8h-97.4c-9,0-18.1-.4-26.8-2.4-4.8-1.1-9.3,2.7-9,7.7.3,4.5,4.6,7.6,9,6.7,8.1-1.6,16.4-2.4,24.6-2.4h99.4c31.9,0,59.4,22.8,64.9,54.2,2.43,14.02,5.78,27.76,9.9,41.18-.06-.69-.12-1.37-.18-2.06Z"/>
</svg>