<?xml version="1.0" encoding="UTF-8"?>
<svg id="Layer_1" data-name="Layer 1" xmlns="http://www.w3.org/2000/svg" viewBox="0 0 1080 1080">
  <defs>
    <style>
      .cls-1 {
        fill: #040404;
      }
    </style>
  </defs>
  <path class="cls-1" d="M401.44,870.23c-4.38-6.47-9.42-11.95-14.99-17.46-12.27-12.12-25.11-23.7-37.59-35.61-17.04-16.26-34.4-32.56-49.52-50.67,3,4.76,6.1,9.46,9.33,14.06,18.3,26.1,15.2,61.7-7.4,84.2l-21.4,21.4c-6.4,6.4-13,12.5-20.7,17.3-4.1,2.6-4.7,8.4-1,11.7,3.4,3,8.7,2.1,11.2-1.6,4.6-6.9,9.9-13.2,15.7-19.1l22.9-22.9c22.6-22.6,58.1-25.7,84.2-7.4,3.13,2.19,6.31,4.31,9.5,6.4-.07-.11-.15-.21-.22-.32Z"/>
</svg>