<?xml version="1.0" encoding="UTF-8"?>
<svg id="Layer_1" data-name="Layer 1" xmlns="http://www.w3.org/2000/svg" viewBox="0 0 1080 1080">
  <defs>
    <style>
      .cls-1 {
        fill: #040404;
      }
    </style>
  </defs>
  <path class="cls-1" d="M602.29,598.08c2.09-12.76,1.52-27.14-4.47-38.84-11.95-23.35-40.54-24.42-58.42-8.78,5.62,21.97-.38,46.03-17.23,62.81l-21.4,21.4c-6.4,6.4-13,12.5-20.7,17.3-4.1,2.6-4.7,8.4-1,11.7,3.4,3,8.7,2.1,11.2-1.6,4.6-6.9,9.9-13.2,15.7-19.1l8.7-8.7,14.2-14.2c19.18-19.18,47.64-24.31,71.77-14.24.69-2.53,1.21-5.11,1.65-7.76Z"/>
</svg>