<?xml version="1.0" encoding="UTF-8"?>
<svg id="Layer_1" data-name="Layer 1" xmlns="http://www.w3.org/2000/svg" viewBox="0 0 1080 1080">
  <defs>
    <style>
      .cls-1 {
        fill: #040404;
      }
    </style>
  </defs>
  <path class="cls-1" d="M563.2,254.63c41.58.81,83.15,2.53,124.6,5.88-10.56-3.25-24.31-6.92-40.59-9.81-24.66-4.38-28.63-2.27-118.6-.1-9.5.23-17.63,1.54-24.94,3.42,19.84.05,39.69.22,59.53.61Z"/>
  <path class="cls-1" d="M563.2,254.63c41.57.81,83.14,2.53,124.59,5.88-13.2-4.07-26.75-7.36-40.58-9.8-31.6-5.6-54.8-32.8-54.8-64.9v-30.5c0-9,.4-18.1,2.4-26.8,1.1-4.8-2.7-9.3-7.7-9-4.5.3-7.6,4.6-6.7,9,1.6,8.1,2.4,16.4,2.4,24.6v32.5c0,31.9-22.7,59.5-54.2,65-5.68,1.01-11.3,2.17-16.88,3.44,17.16.08,34.32.25,51.47.58Z"/>
</svg>