<?xml version="1.0" encoding="UTF-8"?>
<svg id="Layer_1" data-name="Layer 1" xmlns="http://www.w3.org/2000/svg" viewBox="0 0 1080 1080">
  <path d="M585.75,471.96c-5.01-1.32-10.02-2.64-15.02-3.96-18.57,0-37.14.02-55.71.03-10.69,2.94-83.14,24.02-111.71,88.94-12.73,28.93-12.99,58.04-12.99,62.51,0,85.09,67.85,154.07,151.56,154.07s151.56-68.98,151.56-154.07c0-69.58-45.38-128.38-107.68-147.51Z"/>
  <path d="M570.73,468c-14.78-6.05-24.92-20.44-24.92-36.96v-59.1c0-5.46.24-10.98,1.46-16.26.67-2.91-1.64-5.64-4.67-5.46-2.73.18-4.61,2.79-4.07,5.46.97,4.91,1.46,9.95,1.46,14.93v60.31c0,16.55-10.12,31.14-24.96,37.11,18.56.53,37.14.28,55.71-.03Z"/>
</svg>