<?xml version="1.0" encoding="UTF-8"?>
<svg id="Layer_1" data-name="Layer 1" xmlns="http://www.w3.org/2000/svg" viewBox="0 0 1080 1080">
  <path d="M585.75,471.96h-.01c-7.87-3.77-14.84-9.03-20.57-15.36h-43.47c-4.78,5.32-10.43,9.88-16.76,13.41-65.85,16.76-114.63,77.31-114.63,149.46,0,85.09,67.85,154.07,151.56,154.07s151.56-68.98,151.56-154.07c0-69.58-45.38-128.38-107.68-147.51Z"/>
  <path d="M565.17,456.6c-3.1-2.31-7.47-6.17-11.18-12.05-5.75-9.1-6.73-18-6.92-22.41v-59.1c0-5.46.24-10.98,1.46-16.26.67-2.91-1.64-5.64-4.67-5.46-2.73.18-4.61,2.79-4.07,5.46.97,4.91,1.46,9.95,1.46,14.93v60.31c-.04,3.93-.69,13.25-6.92,22.52-4.28,6.37-9.44,10.11-12.63,12.06,5.57,1.48,13.25,2.9,22.43,2.83,8.53-.07,15.71-1.42,21.04-2.83Z"/>
</svg>