<?xml version="1.0" encoding="UTF-8"?>
<svg id="Layer_1" data-name="Layer 1" xmlns="http://www.w3.org/2000/svg" viewBox="0 0 1080 1080">
  <path d="M585.75,471.96h-.01c-2.05-.98-4.04-2.08-5.97-3.25-6.09.01-12.05.12-18.18.65-19.4,1.68-38.75,1.17-58.2,1.14-.09,0-.17,0-.25-.01-64.94,17.4-112.83,77.49-112.83,148.98,0,85.09,67.85,154.07,151.56,154.07s151.56-68.98,151.56-154.07c0-69.58-45.38-128.38-107.68-147.51Z"/>
  <path d="M563.46,465.17s-.05-.02-.07-.03c-.06-.04-.11-.08-.16-.11-.71-.44-1.32-.9-1.82-1.38-10.66-5.83-17.54-15.56-17.54-26.48v-47.49c0-4.39.24-8.83,1.46-13.07.67-2.34-1.64-4.53-4.67-4.39-2.73.15-4.61,2.24-4.07,4.39.97,3.95,1.46,8,1.46,11.99v48.47c0,11.51-7.59,21.84-19.25,27.52,1.07.66,1.37,1.6.92,2.43,14.78.23,29.57.1,44.35-.09-.59-.52-.78-1.16-.6-1.76Z"/>
  <ellipse cx="541.87" cy="613.34" rx="142.7" ry="150.82"/>
</svg>