<?xml version="1.0" encoding="UTF-8"?>
<svg id="Layer_1" data-name="Layer 1" xmlns="http://www.w3.org/2000/svg" viewBox="0 0 1080 1080">
  <path d="M585.75,471.96h-.01c-7.87-3.77-14.84-9.03-20.57-15.36h-43.47c-4.78,5.32-10.43,9.88-16.76,13.41-65.85,16.76-114.63,77.31-114.63,149.46,0,85.09,67.85,154.07,151.56,154.07s151.56-68.98,151.56-154.07c0-69.58-45.38-128.38-107.68-147.51Z"/>
  <path d="M566.36,457.83s-.05-.04-.07-.07c-.06-.07-.11-.15-.16-.23-.71-.87-1.32-1.79-1.82-2.76-10.66-11.65-17.54-31.11-17.54-52.96v-94.98c0-8.78.24-17.65,1.46-26.13.67-4.68-1.64-9.07-4.67-8.78-2.73.29-4.61,4.49-4.07,8.78.97,7.9,1.46,15.99,1.46,23.99v96.93c0,23.02-7.59,43.68-19.25,55.04,1.07,1.32,1.37,3.21.92,4.85,14.78.45,29.57.2,44.35-.17-.59-1.05-.78-2.31-.6-3.52Z"/>
</svg>