<?xml version="1.0" encoding="UTF-8"?>
<svg id="Layer_1" data-name="Layer 1" xmlns="http://www.w3.org/2000/svg" viewBox="0 0 1080 1080">
  <defs>
    <style>
      .cls-1 {
        fill: #040404;
      }
    </style>
  </defs>
  <path class="cls-1" d="M505.04,631.38c4.87,5.87,10.57,10.95,17.37,14.63,19.67,10.65,45.04,7.18,62.83-5.7,8.47-6.13,15.36-14.44,18.59-24.48,2.74-8.52,2.2-17.31-.39-25.63-28.65,2.7-56.22-13.31-67.36-40.51l-36.91-90.13c-3.41-8.33-6.49-16.9-7.94-25.71-.8-4.86-6.02-7.58-10.54-5.41-4.05,1.98-5.29,7.14-2.79,10.87,4.55,6.89,8.44,14.27,11.54,21.86l37.67,91.99c11.55,28.21,2.3,60.59-22.09,78.23Z"/>
</svg>