<?xml version="1.0" encoding="UTF-8"?>
<svg id="Layer_1" data-name="Layer 1" xmlns="http://www.w3.org/2000/svg" viewBox="0 0 1080 1080">
  <path d="M488.53,476.46c2.28,7.28,5.63,14.14,10.53,20.12,14.17,17.31,38.96,23.71,60.31,18.54,10.16-2.46,19.68-7.54,26.48-15.61,5.77-6.85,8.6-15.19,9.36-23.86-27.53-8.36-46.98-33.63-46.98-63.02v-97.4c0-9,.4-18.1,2.4-26.8,1.1-4.8-2.7-9.3-7.7-9-4.5.3-7.6,4.6-6.7,9,1.6,8.1,2.4,16.4,2.4,24.6v99.4c0,30.49-20.83,56.94-50.09,64.03Z"/>
  <ellipse cx="541.86" cy="619.47" rx="151.56" ry="154.07"/>
</svg>