<?xml version="1.0" encoding="UTF-8"?>
<svg id="Layer_1" data-name="Layer 1" xmlns="http://www.w3.org/2000/svg" viewBox="0 0 1080 1080">
  <defs>
    <style>
      .cls-1 {
        fill: #040404;
      }
    </style>
  </defs>
  <path class="cls-1" d="M790.23,491.66c-36.51-99.19-132.14-169.79-244.16-169.08-141.72.9-256.85,117-256.61,258.73.24,142.45,115.79,257.86,258.3,257.86,102.6,0,191.23-59.82,232.91-146.49,1.59-3.31-.85-7.14-4.52-7.14h-112.79c-2.65,0-5.2,1.06-7.07,2.95-27.94,28.18-66.78,45.53-109.67,45.22-83.19-.61-151.11-68.54-151.69-151.73-.6-84.92,68.06-153.94,152.83-153.94,52.16,0,98.22,26.13,125.8,66.02,1.87,2.71,4.94,4.34,8.24,4.34l103.73-.02c3.47,0,5.9-3.46,4.7-6.72Z"/>
</svg>